# xmcd
#
# Track frame offsets:
#	150
#	9550
#	20539
#	33215
#	49776
#	57121
#	68364
#	78037
#	91061
#	104155
#	115489
#	138341
#	148671
#	162606
#	177432
#	194596
#	205892
#	217823
#
# Disc length: 3046 seconds
#
# Revision: 1
# Processed by: cddbd v1.5.2PL0 Copyright (c) Steve Scherf et al.
# Submitted via: audiograbber 1.83.01
#
DISCID=f80be412
DTITLE=Various Artist - Black Gospel Vol 1
DYEAR=2001
DGENRE=Gospel
TTITLE0=The Staple Singers - This May Be The Last Time
TTITLE1=The Caravans - It's Jesus In Me
TTITLE2=The Swan Silverstones - Oh Mary Don't You Weep
TTITLE3=The Original Gospel Harmonettes - Is Your All On The Altar
TTITLE4=The Argo Gospel Singers - See How He Kept Me
TTITLE5=The Five Blind Boys Of Mississippi - I'm A Rolling
TTITLE6=The Highway QCS - It's Me
TTITLE7=Alex Bradford and The Bradford Singers - Too Close
TTITLE8=The Platters - Crying In The Chapel
TTITLE9=The Patterson Singers - Great Day Coming
TTITLE10=Eddie Holman - United
TTITLE11=Brother James Anderson - Going Home With Jesus
TTITLE12=The Harmonizing Four - Wade In The Water
TTITLE13=Mahailia Jackson - I'm Going To Tell God
TTITLE14=The Five Blind Boys Of Alabama - Precious Lord
TTITLE15=Sister Rosetta Tharpe - Up Above My Head
TTITLE16=The Golden Gate Quartet - Joshua Fid The Battle Of Jericho
TTITLE17=Marie Knight - Gospel Train
EXTD=
EXTT0=
EXTT1=
EXTT2=
EXTT3=
EXTT4=
EXTT5=
EXTT6=
EXTT7=
EXTT8=
EXTT9=
EXTT10=
EXTT11=
EXTT12=
EXTT13=
EXTT14=
EXTT15=
EXTT16=
EXTT17=
PLAYORDER=
